<svg viewBox="0 0 100 30" xmlns="http://www.w3.org/2000/svg" data-name="Layer 1" id="Layer_1">
  <defs>
    <style>
      .cls-1 {
        fill: #010101;
      }

      .cls-2 {
        fill: #5e6336;
      }
    </style>
  </defs>
  <g>
    <g>
      <g>
        <g>
          <path d="M92.31,20.01v-2.63h.98s.02,0,.02,0h.03s.02,0,.02,0h.03s.02,0,.02,0h.03s.02,0,.02,0h.03s.02,0,.02,0h.02s.02.02.02.02h.02s.02.02.02.02h.02s.02.02.02.02h.02s.02.02.02.02h.02s.03.03.03.03h.02s.02.02.02.02h.02s.02.02.02.02l.03.03.03.02.02.02h0s.02.02.02.02l.02.03h0s.01.03.01.03v.02s.02.01.02.01v.02s.03.03.03.03v.02s.02.02.02.02h0s0,.03,0,.03v.04s.02.02.02.02v.04s.02.02.02.02v.04s0,.02,0,.02v.04s0,.02,0,.02v.15s0,.04,0,.04v.06s0,.02,0,.02v.02s-.02.02-.02.02h0s-.02.05-.02.05v.02s-.02.02-.02.02h0s0,.03,0,.03v.02s-.02.02-.02.02h0s-.02.03-.02.03h0s-.02.03-.02.03h0s-.01.03-.01.03l-.04.04h-.02s0,.02,0,.02h-.02s-.02.03-.02.03h-.01s-.02.02-.02.02h-.02s-.02.02-.02.02h-.02s-.01.02-.01.02h-.02s-.02.02-.02.02h-.02s-.02.02-.02.02h-.02s-.02.01-.02.01h-.02s-.02.01-.02.01h-.02s-.03,0-.03,0h-.04s-.02.01-.02.01h-.02s-.03,0-.03,0h-.04s-.03,0-.03,0h-.07s-.47,0-.47,0v1.11h-.42ZM93.14,18.52h.09s.03,0,.03,0h.05s.02-.02.02-.02h.03s.02-.01.02-.01l.04-.02h.02s.03-.03.03-.03h.02s.01-.02.01-.02h0s.02-.03.02-.03h.01s0-.03,0-.03v-.02s.03-.05.03-.05v-.02s.01-.04.01-.04v-.05s0-.12,0-.12v-.02s0-.02,0-.02v-.02s-.01-.02-.01-.02l-.02-.05h0s0-.03,0-.03h0s-.01-.03-.01-.03v-.02s-.02,0-.02,0h-.02s-.02-.03-.02-.03h-.02s-.04-.03-.04-.03h-.02s-.02-.02-.02-.02h-.02s-.02,0-.02,0h-.03s-.03,0-.03,0h-.03s-.03,0-.03,0h-.48v.77h.41,0Z" class="cls-1"></path>
          <path d="M92.7,18.54h.55s.03,0,.03,0h.03s.02-.02.02-.02h.03s.03-.01.03-.01h.02s.02-.02.02-.02h.02s.02-.02.02-.02h.02s.02-.03.02-.03h.02s.01-.03.01-.03h.02s.01-.03.01-.03v-.02s.02-.02.02-.02v-.02s.01-.02.01-.02v-.02s.01-.02.01-.02v-.04s0-.02,0-.02v-.03s0-.13,0-.13v-.02s0-.02,0-.02v-.02s-.02-.02-.02-.02v-.02s-.01-.02-.01-.02v-.02s-.02-.02-.02-.02v-.02s-.02-.01-.02-.01l-.02-.02v-.02s-.03,0-.03,0h-.02s-.02-.03-.02-.03h-.02s-.02-.02-.02-.02h-.02s-.02-.02-.02-.02h-.03s-.03-.01-.03-.01h-.05s-.03-.01-.03-.01h-.03s-.03,0-.03,0h-.1s-.4,0-.4,0v.81h0ZM92.33,19.98v-2.59h.98s.02,0,.02,0h.02s.02,0,.02,0h.02s.02.01.02.01h.04s.02,0,.02,0h.02s.02.02.02.02h.02s.02.02.02.02h.02s.02.02.02.02h.02s.02.02.02.02h.02s.02.02.02.02h.02s.02.02.02.02h.01s.02.02.02.02h.02s.01.03.01.03h.01s.02.02.02.02h.01s.01.03.01.03h.01s.01.03.01.03h0s.01.03.01.03h0s.01.03.01.03v.02s.02.02.02.02v.02s.02.02.02.02v.02s.02.02.02.02v.02s.01.02.01.02v.02s0,.02,0,.02v.02s.02.02.02.02v.04s.01.02.01.02v.06s0,.02,0,.02v.02s0,.02,0,.02v.17s0,.02,0,.02v.02s-.01.02-.01.02v.04s-.02.02-.02.02v.02s0,.02,0,.02v.02s-.02.02-.02.02v.02s-.02.02-.02.02v.02s-.02.02-.02.02v.02s-.02.01-.02.01v.02s-.02.02-.02.02h0s-.01.03-.01.03v.02s-.02.02-.02.02h-.01s-.01.03-.01.03h-.01s-.02.03-.02.03h0s-.01.02-.01.02h-.02s-.02.03-.02.03h-.02s-.02.02-.02.02h-.02s-.02.02-.02.02h-.02s-.02.02-.02.02h-.02s-.02.02-.02.02h-.02s-.02.01-.02.01h-.02s-.02.01-.02.01h-.02s-.02.01-.02.01h-.04s-.02.02-.02.02h-.04s-.02,0-.02,0h-.02s-.03,0-.03,0h-.02s-.02,0-.02,0h-.54v1.11h-.37l.02-.02Z" class="cls-1"></path>
          <polygon points="94.36 20.01 94.36 17.37 94.72 17.37 96.39 19.34 96.39 17.37 96.8 17.37 96.8 20.01 96.44 20.01 94.77 18.03 94.77 20.01 94.36 20.01" class="cls-1"></polygon>
          <polygon points="94.39 19.98 94.39 17.4 94.71 17.4 96.41 19.4 96.41 17.4 96.78 17.4 96.78 19.98 96.45 19.98 94.75 17.97 94.75 19.98 94.39 19.98" class="cls-1"></polygon>
          <polygon points="98.58 20.05 98.56 20.05 98.47 20.05 98.44 20.04 98.41 20.04 98.38 20.04 98.36 20.03 98.3 20.02 98.27 20.02 98.25 20.01 98.22 20.01 98.19 20 98.17 19.99 98.14 19.99 98.09 19.97 98.06 19.96 98.04 19.95 98.02 19.94 97.99 19.93 97.97 19.92 97.94 19.91 97.92 19.9 97.9 19.89 97.87 19.87 97.83 19.85 97.79 19.82 97.75 19.79 97.71 19.77 97.68 19.75 97.65 19.72 97.61 19.69 97.58 19.66 97.55 19.63 97.49 19.57 97.47 19.54 97.44 19.51 97.42 19.48 97.4 19.44 97.37 19.4 97.35 19.37 97.31 19.29 97.26 19.18 97.24 19.14 97.21 19.02 97.2 18.98 97.19 18.93 97.18 18.9 97.18 18.85 97.17 18.81 97.17 18.77 97.16 18.73 97.16 18.68 97.16 18.65 97.17 18.58 97.17 18.55 97.18 18.52 97.18 18.48 97.19 18.45 97.2 18.42 97.2 18.39 97.21 18.35 97.22 18.32 97.22 18.29 97.26 18.2 97.28 18.16 97.29 18.14 97.32 18.07 97.33 18.04 97.37 17.99 97.38 17.96 97.42 17.9 97.44 17.88 97.46 17.85 97.48 17.83 97.51 17.8 97.55 17.75 97.58 17.73 97.6 17.71 97.63 17.68 97.66 17.66 97.68 17.64 97.71 17.61 97.74 17.59 97.8 17.56 97.83 17.54 97.89 17.5 97.92 17.49 97.95 17.47 97.98 17.46 98.01 17.44 98.05 17.43 98.08 17.42 98.11 17.41 98.15 17.4 98.22 17.38 98.29 17.37 98.36 17.35 98.4 17.35 98.43 17.34 98.47 17.34 98.51 17.34 98.55 17.33 98.59 17.33 98.66 17.33 98.69 17.33 98.71 17.34 98.74 17.34 98.76 17.34 98.79 17.34 98.85 17.35 98.88 17.35 98.9 17.35 98.93 17.36 98.96 17.37 98.99 17.37 99.01 17.37 99.04 17.38 99.07 17.39 99.18 17.42 99.24 17.43 99.29 17.45 99.35 17.47 99.4 17.49 99.53 17.55 99.53 18.01 99.47 17.97 99.44 17.96 99.4 17.94 99.38 17.92 99.26 17.87 99.23 17.86 99.18 17.84 99.15 17.83 99.12 17.82 99.07 17.8 99.04 17.79 99.01 17.78 98.96 17.77 98.93 17.76 98.91 17.76 98.88 17.75 98.86 17.75 98.83 17.74 98.81 17.74 98.75 17.73 98.73 17.73 98.7 17.73 98.68 17.73 98.65 17.73 98.6 17.73 98.57 17.73 98.54 17.73 98.52 17.73 98.49 17.74 98.46 17.74 98.44 17.74 98.41 17.74 98.39 17.75 98.36 17.76 98.34 17.76 98.31 17.77 98.24 17.79 98.23 17.8 98.2 17.81 98.18 17.82 98.15 17.82 98.13 17.84 98.09 17.86 98.07 17.87 98.05 17.88 98.02 17.9 98.01 17.91 97.99 17.92 97.97 17.94 97.95 17.95 97.93 17.97 97.91 17.98 97.9 18 97.88 18.02 97.84 18.06 97.8 18.11 97.78 18.13 97.77 18.15 97.75 18.17 97.74 18.19 97.73 18.21 97.72 18.23 97.71 18.25 97.69 18.27 97.69 18.29 97.68 18.31 97.65 18.38 97.65 18.4 97.64 18.42 97.63 18.45 97.62 18.49 97.62 18.52 97.61 18.54 97.61 18.57 97.61 18.59 97.61 18.61 97.61 18.64 97.6 18.67 97.6 18.69 97.6 18.72 97.61 18.74 97.61 18.77 97.61 18.8 97.61 18.82 97.61 18.84 97.62 18.86 97.63 18.92 97.63 18.94 97.64 18.96 97.65 18.98 97.67 19.05 97.68 19.07 97.69 19.09 97.7 19.11 97.71 19.13 97.72 19.16 97.73 19.17 97.74 19.19 97.75 19.22 97.77 19.23 97.78 19.25 97.8 19.27 97.81 19.29 97.84 19.32 97.87 19.36 97.89 19.37 97.91 19.4 97.93 19.41 97.96 19.44 97.98 19.45 98.02 19.49 98.04 19.5 98.06 19.51 98.11 19.53 98.12 19.55 98.15 19.56 98.17 19.56 98.19 19.57 98.21 19.58 98.28 19.61 98.31 19.61 98.33 19.62 98.35 19.63 98.38 19.63 98.4 19.63 98.43 19.64 98.45 19.64 98.48 19.64 98.53 19.65 98.56 19.65 98.64 19.65 98.71 19.65 98.74 19.64 98.77 19.64 98.81 19.63 98.84 19.63 98.87 19.63 98.9 19.62 98.94 19.61 99 19.59 99.04 19.58 99.07 19.56 99.13 19.54 99.13 19.08 98.69 19.08 98.69 18.69 99.55 18.69 99.55 19.82 99.41 19.88 99.29 19.93 99.23 19.95 99.17 19.96 99.14 19.97 99.11 19.98 99.08 19.99 99.02 20.01 98.97 20.01 98.94 20.02 98.91 20.03 98.88 20.03 98.85 20.03 98.82 20.04 98.8 20.04 98.78 20.04 98.67 20.05 98.64 20.05 98.58 20.05" class="cls-1"></polygon>
          <polygon points="99.53 18.72 99.53 19.81 99.47 19.83 99.4 19.86 99.34 19.88 99.28 19.9 99.22 19.92 99.16 19.94 99.14 19.95 99.1 19.96 99.07 19.97 99.05 19.97 99.02 19.98 98.99 19.99 98.96 19.99 98.94 20 98.91 20 98.88 20.01 98.85 20.01 98.82 20.01 98.8 20.02 98.77 20.02 98.74 20.02 98.72 20.02 98.69 20.03 98.67 20.03 98.64 20.03 98.61 20.03 98.58 20.03 98.56 20.03 98.53 20.03 98.5 20.02 98.47 20.02 98.44 20.02 98.41 20.02 98.38 20.01 98.36 20.01 98.33 20.01 98.31 20 98.28 20 98.25 19.99 98.23 19.98 98.2 19.98 98.18 19.97 98.15 19.96 98.12 19.95 98.1 19.95 98.07 19.94 98.05 19.93 98.03 19.92 98 19.91 97.98 19.9 97.95 19.89 97.93 19.88 97.91 19.87 97.88 19.85 97.86 19.84 97.84 19.83 97.82 19.82 97.8 19.8 97.76 19.77 97.73 19.75 97.69 19.73 97.66 19.7 97.63 19.67 97.6 19.64 97.57 19.62 97.54 19.59 97.51 19.56 97.49 19.52 97.46 19.49 97.44 19.46 97.41 19.43 97.39 19.39 97.37 19.36 97.35 19.32 97.33 19.28 97.31 19.24 97.29 19.21 97.28 19.17 97.27 19.13 97.25 19.09 97.24 19.05 97.23 19.01 97.22 18.97 97.21 18.93 97.2 18.89 97.2 18.85 97.2 18.81 97.19 18.77 97.19 18.72 97.19 18.68 97.19 18.65 97.19 18.61 97.19 18.58 97.2 18.55 97.2 18.52 97.2 18.49 97.21 18.45 97.22 18.42 97.22 18.39 97.23 18.36 97.24 18.33 97.25 18.3 97.26 18.27 97.27 18.23 97.28 18.21 97.29 18.17 97.31 18.15 97.32 18.11 97.34 18.08 97.35 18.06 97.37 18.03 97.39 18 97.4 17.97 97.42 17.95 97.44 17.92 97.46 17.89 97.48 17.87 97.5 17.84 97.53 17.82 97.55 17.79 97.57 17.77 97.6 17.75 97.62 17.72 97.65 17.7 97.67 17.68 97.7 17.65 97.73 17.63 97.75 17.61 97.78 17.59 97.81 17.58 97.84 17.56 97.87 17.54 97.9 17.52 97.93 17.51 97.96 17.49 97.99 17.48 98.02 17.46 98.05 17.46 98.09 17.44 98.12 17.43 98.16 17.42 98.19 17.41 98.22 17.4 98.26 17.39 98.29 17.39 98.33 17.38 98.37 17.38 98.4 17.37 98.44 17.37 98.48 17.36 98.51 17.36 98.55 17.36 98.59 17.36 98.63 17.36 98.66 17.36 98.69 17.36 98.71 17.36 98.74 17.36 98.76 17.36 98.79 17.36 98.82 17.37 98.85 17.37 98.88 17.37 98.9 17.38 98.93 17.38 98.95 17.39 98.98 17.39 99.01 17.4 99.04 17.4 99.07 17.41 99.12 17.42 99.17 17.44 99.23 17.46 99.28 17.47 99.34 17.49 99.39 17.52 99.45 17.54 99.51 17.56 99.51 17.97 99.48 17.95 99.45 17.93 99.42 17.92 99.39 17.9 99.36 17.89 99.33 17.88 99.3 17.86 99.27 17.85 99.24 17.84 99.21 17.83 99.18 17.82 99.16 17.8 99.13 17.79 99.1 17.78 99.07 17.78 99.05 17.77 99.02 17.76 98.99 17.75 98.97 17.75 98.94 17.74 98.91 17.73 98.88 17.73 98.86 17.73 98.83 17.72 98.81 17.72 98.78 17.71 98.75 17.71 98.73 17.71 98.7 17.71 98.68 17.71 98.65 17.71 98.62 17.71 98.6 17.71 98.57 17.71 98.54 17.71 98.51 17.71 98.49 17.71 98.46 17.71 98.43 17.72 98.41 17.72 98.38 17.73 98.36 17.73 98.33 17.74 98.31 17.74 98.29 17.75 98.26 17.76 98.24 17.77 98.21 17.78 98.19 17.78 98.17 17.79 98.14 17.8 98.12 17.82 98.1 17.83 98.08 17.84 98.06 17.85 98.04 17.86 98.01 17.88 97.99 17.89 97.98 17.9 97.95 17.92 97.94 17.94 97.92 17.95 97.9 17.97 97.88 17.99 97.86 18.01 97.84 18.02 97.83 18.04 97.81 18.06 97.8 18.08 97.78 18.1 97.76 18.12 97.75 18.14 97.73 18.16 97.72 18.18 97.71 18.2 97.7 18.22 97.69 18.24 97.67 18.26 97.67 18.28 97.66 18.3 97.65 18.33 97.64 18.35 97.63 18.37 97.62 18.4 97.62 18.42 97.61 18.44 97.6 18.47 97.6 18.49 97.6 18.51 97.59 18.54 97.59 18.56 97.59 18.59 97.58 18.61 97.58 18.64 97.58 18.67 97.58 18.69 97.58 18.72 97.58 18.74 97.58 18.77 97.59 18.8 97.59 18.82 97.59 18.84 97.6 18.87 97.6 18.89 97.6 18.92 97.61 18.94 97.62 18.97 97.62 18.99 97.63 19.01 97.64 19.03 97.65 19.05 97.66 19.08 97.67 19.1 97.67 19.12 97.69 19.14 97.7 19.17 97.71 19.18 97.72 19.2 97.73 19.23 97.75 19.24 97.76 19.26 97.78 19.28 97.79 19.3 97.8 19.32 97.82 19.34 97.84 19.36 97.86 19.37 97.87 19.39 97.89 19.41 97.91 19.43 97.93 19.44 97.95 19.46 97.97 19.47 97.99 19.49 98.01 19.5 98.03 19.52 98.05 19.53 98.07 19.54 98.09 19.55 98.11 19.56 98.14 19.57 98.16 19.59 98.18 19.6 98.2 19.61 98.23 19.61 98.25 19.62 98.27 19.63 98.3 19.63 98.32 19.64 98.35 19.65 98.37 19.65 98.4 19.66 98.42 19.66 98.45 19.67 98.47 19.67 98.5 19.67 98.53 19.67 98.55 19.68 98.58 19.68 98.61 19.68 98.64 19.68 98.67 19.67 98.71 19.67 98.74 19.67 98.77 19.66 98.81 19.66 98.84 19.65 98.88 19.65 98.91 19.64 98.94 19.63 98.98 19.62 99.01 19.61 99.05 19.6 99.08 19.59 99.12 19.57 99.15 19.56 99.15 19.06 98.71 19.06 98.71 18.72 99.53 18.72" class="cls-1"></polygon>
        </g>
        <g>
          <path d="M92.31,20.01v-2.63h.98s.02,0,.02,0h.03s.02,0,.02,0h.03s.02,0,.02,0h.03s.02,0,.02,0h.03s.02,0,.02,0h.02s.02.02.02.02h.02s.02.02.02.02h.02s.02.02.02.02h.02s.02.02.02.02h.02s.03.03.03.03h.02s.02.02.02.02h.02s.02.02.02.02l.03.03.03.02.02.02h0s.02.02.02.02l.02.03h0s.01.03.01.03v.02s.02.01.02.01v.02s.03.03.03.03v.02s.02.02.02.02h0s0,.03,0,.03v.04s.02.02.02.02v.04s.02.02.02.02v.04s0,.02,0,.02v.04s0,.02,0,.02v.15s0,.04,0,.04v.06s0,.02,0,.02v.02s-.02.02-.02.02h0s-.02.05-.02.05v.02s-.02.02-.02.02h0s0,.03,0,.03v.02s-.02.02-.02.02h0s-.02.03-.02.03h0s-.02.03-.02.03h0s-.01.03-.01.03l-.04.04h-.02s0,.02,0,.02h-.02s-.02.03-.02.03h-.01s-.02.02-.02.02h-.02s-.02.02-.02.02h-.02s-.01.02-.01.02h-.02s-.02.02-.02.02h-.02s-.02.02-.02.02h-.02s-.02.01-.02.01h-.02s-.02.01-.02.01h-.02s-.03,0-.03,0h-.04s-.02.01-.02.01h-.02s-.03,0-.03,0h-.04s-.03,0-.03,0h-.07s-.47,0-.47,0v1.11h-.42ZM93.14,18.52h.09s.03,0,.03,0h.05s.02-.02.02-.02h.03s.02-.01.02-.01l.04-.02h.02s.03-.03.03-.03h.02s.01-.02.01-.02h0s.02-.03.02-.03h.01s0-.03,0-.03v-.02s.03-.05.03-.05v-.02s.01-.04.01-.04v-.05s0-.12,0-.12v-.02s0-.02,0-.02v-.02s-.01-.02-.01-.02l-.02-.05h0s0-.03,0-.03h0s-.01-.03-.01-.03v-.02s-.02,0-.02,0h-.02s-.02-.03-.02-.03h-.02s-.04-.03-.04-.03h-.02s-.02-.02-.02-.02h-.02s-.02,0-.02,0h-.03s-.03,0-.03,0h-.03s-.03,0-.03,0h-.48v.77h.41,0Z" class="cls-2"></path>
          <path d="M92.7,18.54h.55s.03,0,.03,0h.03s.02-.02.02-.02h.03s.03-.01.03-.01h.02s.02-.02.02-.02h.02s.02-.02.02-.02h.02s.02-.03.02-.03h.02s.01-.03.01-.03h.02s.01-.03.01-.03v-.02s.02-.02.02-.02v-.02s.01-.02.01-.02v-.02s.01-.02.01-.02v-.04s0-.02,0-.02v-.03s0-.13,0-.13v-.02s0-.02,0-.02v-.02s-.02-.02-.02-.02v-.02s-.01-.02-.01-.02v-.02s-.02-.02-.02-.02v-.02s-.02-.01-.02-.01l-.02-.02v-.02s-.03,0-.03,0h-.02s-.02-.03-.02-.03h-.02s-.02-.02-.02-.02h-.02s-.02-.02-.02-.02h-.03s-.03-.01-.03-.01h-.05s-.03-.01-.03-.01h-.03s-.03,0-.03,0h-.1s-.4,0-.4,0v.81h0ZM92.33,19.98v-2.59h.98s.02,0,.02,0h.02s.02,0,.02,0h.02s.02.01.02.01h.04s.02,0,.02,0h.02s.02.02.02.02h.02s.02.02.02.02h.02s.02.02.02.02h.02s.02.02.02.02h.02s.02.02.02.02h.02s.02.02.02.02h.01s.02.02.02.02h.02s.01.03.01.03h.01s.02.02.02.02h.01s.01.03.01.03h.01s.01.03.01.03h0s.01.03.01.03h0s.01.03.01.03v.02s.02.02.02.02v.02s.02.02.02.02v.02s.02.02.02.02v.02s.01.02.01.02v.02s0,.02,0,.02v.02s.02.02.02.02v.04s.01.02.01.02v.06s0,.02,0,.02v.02s0,.02,0,.02v.17s0,.02,0,.02v.02s-.01.02-.01.02v.04s-.02.02-.02.02v.02s0,.02,0,.02v.02s-.02.02-.02.02v.02s-.02.02-.02.02v.02s-.02.02-.02.02v.02s-.02.01-.02.01v.02s-.02.02-.02.02h0s-.01.03-.01.03v.02s-.02.02-.02.02h-.01s-.01.03-.01.03h-.01s-.02.03-.02.03h0s-.01.02-.01.02h-.02s-.02.03-.02.03h-.02s-.02.02-.02.02h-.02s-.02.02-.02.02h-.02s-.02.02-.02.02h-.02s-.02.02-.02.02h-.02s-.02.01-.02.01h-.02s-.02.01-.02.01h-.02s-.02.01-.02.01h-.04s-.02.02-.02.02h-.04s-.02,0-.02,0h-.02s-.03,0-.03,0h-.02s-.02,0-.02,0h-.54v1.11h-.37l.02-.02Z" class="cls-2"></path>
          <polygon points="94.36 20.01 94.36 17.37 94.72 17.37 96.39 19.34 96.39 17.37 96.8 17.37 96.8 20.01 96.44 20.01 94.77 18.03 94.77 20.01 94.36 20.01" class="cls-2"></polygon>
          <polygon points="94.39 19.98 94.39 17.4 94.71 17.4 96.41 19.4 96.41 17.4 96.78 17.4 96.78 19.98 96.45 19.98 94.75 17.97 94.75 19.98 94.39 19.98" class="cls-2"></polygon>
          <polygon points="98.58 20.05 98.56 20.05 98.47 20.05 98.44 20.04 98.41 20.04 98.38 20.04 98.36 20.03 98.3 20.02 98.27 20.02 98.25 20.01 98.22 20.01 98.19 20 98.17 19.99 98.14 19.99 98.09 19.97 98.06 19.96 98.04 19.95 98.02 19.94 97.99 19.93 97.97 19.92 97.94 19.91 97.92 19.9 97.9 19.89 97.87 19.87 97.83 19.85 97.79 19.82 97.75 19.79 97.71 19.77 97.68 19.75 97.65 19.72 97.61 19.69 97.58 19.66 97.55 19.63 97.49 19.57 97.47 19.54 97.44 19.51 97.42 19.48 97.4 19.44 97.37 19.4 97.35 19.37 97.31 19.29 97.26 19.18 97.24 19.14 97.21 19.02 97.2 18.98 97.19 18.93 97.18 18.9 97.18 18.85 97.17 18.81 97.17 18.77 97.16 18.73 97.16 18.68 97.16 18.65 97.17 18.58 97.17 18.55 97.18 18.52 97.18 18.48 97.19 18.45 97.2 18.42 97.2 18.39 97.21 18.35 97.22 18.32 97.22 18.29 97.26 18.2 97.28 18.16 97.29 18.14 97.32 18.07 97.33 18.04 97.37 17.99 97.38 17.96 97.42 17.9 97.44 17.88 97.46 17.85 97.48 17.83 97.51 17.8 97.55 17.75 97.58 17.73 97.6 17.71 97.63 17.68 97.66 17.66 97.68 17.64 97.71 17.61 97.74 17.59 97.8 17.56 97.83 17.54 97.89 17.5 97.92 17.49 97.95 17.47 97.98 17.46 98.01 17.44 98.05 17.43 98.08 17.42 98.11 17.41 98.15 17.4 98.22 17.38 98.29 17.37 98.36 17.35 98.4 17.35 98.43 17.34 98.47 17.34 98.51 17.34 98.55 17.33 98.59 17.33 98.66 17.33 98.69 17.33 98.71 17.34 98.74 17.34 98.76 17.34 98.79 17.34 98.85 17.35 98.88 17.35 98.9 17.35 98.93 17.36 98.96 17.37 98.99 17.37 99.01 17.37 99.04 17.38 99.07 17.39 99.18 17.42 99.24 17.43 99.29 17.45 99.35 17.47 99.4 17.49 99.53 17.55 99.53 18.01 99.47 17.97 99.44 17.96 99.4 17.94 99.38 17.92 99.26 17.87 99.23 17.86 99.18 17.84 99.15 17.83 99.12 17.82 99.07 17.8 99.04 17.79 99.01 17.78 98.96 17.77 98.93 17.76 98.91 17.76 98.88 17.75 98.86 17.75 98.83 17.74 98.81 17.74 98.75 17.73 98.73 17.73 98.7 17.73 98.68 17.73 98.65 17.73 98.6 17.73 98.57 17.73 98.54 17.73 98.52 17.73 98.49 17.74 98.46 17.74 98.44 17.74 98.41 17.74 98.39 17.75 98.36 17.76 98.34 17.76 98.31 17.77 98.24 17.79 98.23 17.8 98.2 17.81 98.18 17.82 98.15 17.82 98.13 17.84 98.09 17.86 98.07 17.87 98.05 17.88 98.02 17.9 98.01 17.91 97.99 17.92 97.97 17.94 97.95 17.95 97.93 17.97 97.91 17.98 97.9 18 97.88 18.02 97.84 18.06 97.8 18.11 97.78 18.13 97.77 18.15 97.75 18.17 97.74 18.19 97.73 18.21 97.72 18.23 97.71 18.25 97.69 18.27 97.69 18.29 97.68 18.31 97.65 18.38 97.65 18.4 97.64 18.42 97.63 18.45 97.62 18.49 97.62 18.52 97.61 18.54 97.61 18.57 97.61 18.59 97.61 18.61 97.61 18.64 97.6 18.67 97.6 18.69 97.6 18.72 97.61 18.74 97.61 18.77 97.61 18.8 97.61 18.82 97.61 18.84 97.62 18.86 97.63 18.92 97.63 18.94 97.64 18.96 97.65 18.98 97.67 19.05 97.68 19.07 97.69 19.09 97.7 19.11 97.71 19.13 97.72 19.16 97.73 19.17 97.74 19.19 97.75 19.22 97.77 19.23 97.78 19.25 97.8 19.27 97.81 19.29 97.84 19.32 97.87 19.36 97.89 19.37 97.91 19.4 97.93 19.41 97.96 19.44 97.98 19.45 98.02 19.49 98.04 19.5 98.06 19.51 98.11 19.53 98.12 19.55 98.15 19.56 98.17 19.56 98.19 19.57 98.21 19.58 98.28 19.61 98.31 19.61 98.33 19.62 98.35 19.63 98.38 19.63 98.4 19.63 98.43 19.64 98.45 19.64 98.48 19.64 98.53 19.65 98.56 19.65 98.64 19.65 98.71 19.65 98.74 19.64 98.77 19.64 98.81 19.63 98.84 19.63 98.87 19.63 98.9 19.62 98.94 19.61 99 19.59 99.04 19.58 99.07 19.56 99.13 19.54 99.13 19.08 98.69 19.08 98.69 18.69 99.55 18.69 99.55 19.82 99.41 19.88 99.29 19.93 99.23 19.95 99.17 19.96 99.14 19.97 99.11 19.98 99.08 19.99 99.02 20.01 98.97 20.01 98.94 20.02 98.91 20.03 98.88 20.03 98.85 20.03 98.82 20.04 98.8 20.04 98.78 20.04 98.67 20.05 98.64 20.05 98.58 20.05" class="cls-2"></polygon>
          <polygon points="99.53 18.72 99.53 19.81 99.47 19.83 99.4 19.86 99.34 19.88 99.28 19.9 99.22 19.92 99.16 19.94 99.14 19.95 99.1 19.96 99.07 19.97 99.05 19.97 99.02 19.98 98.99 19.99 98.96 19.99 98.94 20 98.91 20 98.88 20.01 98.85 20.01 98.82 20.01 98.8 20.02 98.77 20.02 98.74 20.02 98.72 20.02 98.69 20.03 98.67 20.03 98.64 20.03 98.61 20.03 98.58 20.03 98.56 20.03 98.53 20.03 98.5 20.02 98.47 20.02 98.44 20.02 98.41 20.02 98.38 20.01 98.36 20.01 98.33 20.01 98.31 20 98.28 20 98.25 19.99 98.23 19.98 98.2 19.98 98.18 19.97 98.15 19.96 98.12 19.95 98.1 19.95 98.07 19.94 98.05 19.93 98.03 19.92 98 19.91 97.98 19.9 97.95 19.89 97.93 19.88 97.91 19.87 97.88 19.85 97.86 19.84 97.84 19.83 97.82 19.82 97.8 19.8 97.76 19.77 97.73 19.75 97.69 19.73 97.66 19.7 97.63 19.67 97.6 19.64 97.57 19.62 97.54 19.59 97.51 19.56 97.49 19.52 97.46 19.49 97.44 19.46 97.41 19.43 97.39 19.39 97.37 19.36 97.35 19.32 97.33 19.28 97.31 19.24 97.29 19.21 97.28 19.17 97.27 19.13 97.25 19.09 97.24 19.05 97.23 19.01 97.22 18.97 97.21 18.93 97.2 18.89 97.2 18.85 97.2 18.81 97.19 18.77 97.19 18.72 97.19 18.68 97.19 18.65 97.19 18.61 97.19 18.58 97.2 18.55 97.2 18.52 97.2 18.49 97.21 18.45 97.22 18.42 97.22 18.39 97.23 18.36 97.24 18.33 97.25 18.3 97.26 18.27 97.27 18.23 97.28 18.21 97.29 18.17 97.31 18.15 97.32 18.11 97.34 18.08 97.35 18.06 97.37 18.03 97.39 18 97.4 17.97 97.42 17.95 97.44 17.92 97.46 17.89 97.48 17.87 97.5 17.84 97.53 17.82 97.55 17.79 97.57 17.77 97.6 17.75 97.62 17.72 97.65 17.7 97.67 17.68 97.7 17.65 97.73 17.63 97.75 17.61 97.78 17.59 97.81 17.58 97.84 17.56 97.87 17.54 97.9 17.52 97.93 17.51 97.96 17.49 97.99 17.48 98.02 17.46 98.05 17.46 98.09 17.44 98.12 17.43 98.16 17.42 98.19 17.41 98.22 17.4 98.26 17.39 98.29 17.39 98.33 17.38 98.37 17.38 98.4 17.37 98.44 17.37 98.48 17.36 98.51 17.36 98.55 17.36 98.59 17.36 98.63 17.36 98.66 17.36 98.69 17.36 98.71 17.36 98.74 17.36 98.76 17.36 98.79 17.36 98.82 17.37 98.85 17.37 98.88 17.37 98.9 17.38 98.93 17.38 98.95 17.39 98.98 17.39 99.01 17.4 99.04 17.4 99.07 17.41 99.12 17.42 99.17 17.44 99.23 17.46 99.28 17.47 99.34 17.49 99.39 17.52 99.45 17.54 99.51 17.56 99.51 17.97 99.48 17.95 99.45 17.93 99.42 17.92 99.39 17.9 99.36 17.89 99.33 17.88 99.3 17.86 99.27 17.85 99.24 17.84 99.21 17.83 99.18 17.82 99.16 17.8 99.13 17.79 99.1 17.78 99.07 17.78 99.05 17.77 99.02 17.76 98.99 17.75 98.97 17.75 98.94 17.74 98.91 17.73 98.88 17.73 98.86 17.73 98.83 17.72 98.81 17.72 98.78 17.71 98.75 17.71 98.73 17.71 98.7 17.71 98.68 17.71 98.65 17.71 98.62 17.71 98.6 17.71 98.57 17.71 98.54 17.71 98.51 17.71 98.49 17.71 98.46 17.71 98.43 17.72 98.41 17.72 98.38 17.73 98.36 17.73 98.33 17.74 98.31 17.74 98.29 17.75 98.26 17.76 98.24 17.77 98.21 17.78 98.19 17.78 98.17 17.79 98.14 17.8 98.12 17.82 98.1 17.83 98.08 17.84 98.06 17.85 98.04 17.86 98.01 17.88 97.99 17.89 97.98 17.9 97.95 17.92 97.94 17.94 97.92 17.95 97.9 17.97 97.88 17.99 97.86 18.01 97.84 18.02 97.83 18.04 97.81 18.06 97.8 18.08 97.78 18.1 97.76 18.12 97.75 18.14 97.73 18.16 97.72 18.18 97.71 18.2 97.7 18.22 97.69 18.24 97.67 18.26 97.67 18.28 97.66 18.3 97.65 18.33 97.64 18.35 97.63 18.37 97.62 18.4 97.62 18.42 97.61 18.44 97.6 18.47 97.6 18.49 97.6 18.51 97.59 18.54 97.59 18.56 97.59 18.59 97.58 18.61 97.58 18.64 97.58 18.67 97.58 18.69 97.58 18.72 97.58 18.74 97.58 18.77 97.59 18.8 97.59 18.82 97.59 18.84 97.6 18.87 97.6 18.89 97.6 18.92 97.61 18.94 97.62 18.97 97.62 18.99 97.63 19.01 97.64 19.03 97.65 19.05 97.66 19.08 97.67 19.1 97.67 19.12 97.69 19.14 97.7 19.17 97.71 19.18 97.72 19.2 97.73 19.23 97.75 19.24 97.76 19.26 97.78 19.28 97.79 19.3 97.8 19.32 97.82 19.34 97.84 19.36 97.86 19.37 97.87 19.39 97.89 19.41 97.91 19.43 97.93 19.44 97.95 19.46 97.97 19.47 97.99 19.49 98.01 19.5 98.03 19.52 98.05 19.53 98.07 19.54 98.09 19.55 98.11 19.56 98.14 19.57 98.16 19.59 98.18 19.6 98.2 19.61 98.23 19.61 98.25 19.62 98.27 19.63 98.3 19.63 98.32 19.64 98.35 19.65 98.37 19.65 98.4 19.66 98.42 19.66 98.45 19.67 98.47 19.67 98.5 19.67 98.53 19.67 98.55 19.68 98.58 19.68 98.61 19.68 98.64 19.68 98.67 19.67 98.71 19.67 98.74 19.67 98.77 19.66 98.81 19.66 98.84 19.65 98.88 19.65 98.91 19.64 98.94 19.63 98.98 19.62 99.01 19.61 99.05 19.6 99.08 19.59 99.12 19.57 99.15 19.56 99.15 19.06 98.71 19.06 98.71 18.72 99.53 18.72" class="cls-2"></polygon>
        </g>
      </g>
      <g>
        <path d="M88.91,19.39h-.39v-1.16h.3c.1,0,.17.01.22.04.05.03.1.06.12.11.03.04.04.1.04.16,0,.11-.06.2-.18.25.09.02.15.05.2.1s.08.12.08.19c0,.06-.02.11-.04.16-.03.05-.08.09-.13.11s-.13.04-.22.04h0ZM88.82,18.37h-.14v.35h.11c.09,0,.15-.02.19-.05s.06-.08.06-.13c0-.11-.07-.17-.21-.17h0ZM88.83,18.87h-.16v.37h.16c.09,0,.15,0,.18-.02s.06-.03.08-.07.03-.06.03-.1,0-.07-.03-.1-.05-.05-.09-.07c-.04-.01-.1-.02-.18-.02h0Z" class="cls-2"></path>
        <path d="M90.68,18.22h.2l-.43.55v.61h-.17v-.61l-.43-.55h.2l.31.4.32-.4h0Z" class="cls-2"></path>
      </g>
    </g>
    <g>
      <g>
        <path d="M42.11,10.03h1.07v5.13h3.21v.98h-4.28v-6.11h0Z" class="cls-1"></path>
        <path d="M48.88,10.03h1.07v6.11h-1.07v-6.11Z" class="cls-1"></path>
        <path d="M54.39,11.02h-1.94v-.99h4.95v.99h-1.94v5.11h-1.08v-5.11Z" class="cls-1"></path>
        <path d="M59.85,10.03h4.53v.96h-3.46v1.59h3.06v.96h-3.06v1.64h3.5v.96h-4.57v-6.11h0Z" class="cls-1"></path>
        <path d="M66.59,15.25l.65-.77c.58.51,1.18.8,1.93.8.66,0,1.08-.31,1.08-.77v-.02c0-.44-.24-.67-1.38-.93-1.3-.31-2.03-.7-2.03-1.82v-.02c0-1.05.87-1.77,2.08-1.77.89,0,1.6.27,2.22.77l-.58.81c-.55-.41-1.1-.63-1.66-.63-.63,0-.99.32-.99.73v.02c0,.47.28.68,1.46.96,1.29.31,1.95.78,1.95,1.79v.02c0,1.14-.9,1.82-2.18,1.82-.93,0-1.82-.32-2.55-.98h0Z" class="cls-1"></path>
        <path d="M75.26,11.02h-1.94v-.99h4.95v.99h-1.94v5.11h-1.08v-5.11h0Z" class="cls-1"></path>
        <path d="M82.52,13.73l-2.43-3.7h1.27l1.7,2.7,1.73-2.7h1.23l-2.43,3.67v2.43h-1.08v-2.41h0Z" class="cls-1"></path>
        <path d="M88.28,10.03h1.07v5.13h3.21v.98h-4.28v-6.11h0Z" class="cls-1"></path>
        <path d="M94.98,10.03h4.53v.96h-3.46v1.59h3.06v.96h-3.06v1.64h3.5v.96h-4.57v-6.11h0Z" class="cls-1"></path>
      </g>
      <g>
        <path d="M42.11,10.03h1.07v5.13h3.21v.98h-4.28v-6.11h0Z" class="cls-2"></path>
        <path d="M48.88,10.03h1.07v6.11h-1.07v-6.11Z" class="cls-2"></path>
        <path d="M54.39,11.02h-1.94v-.99h4.95v.99h-1.94v5.11h-1.08v-5.11Z" class="cls-2"></path>
        <path d="M59.85,10.03h4.53v.96h-3.46v1.59h3.06v.96h-3.06v1.64h3.5v.96h-4.57v-6.11h0Z" class="cls-2"></path>
        <path d="M66.59,15.25l.65-.77c.58.51,1.18.8,1.93.8.66,0,1.08-.31,1.08-.77v-.02c0-.44-.24-.67-1.38-.93-1.3-.31-2.03-.7-2.03-1.82v-.02c0-1.05.87-1.77,2.08-1.77.89,0,1.6.27,2.22.77l-.58.81c-.55-.41-1.1-.63-1.66-.63-.63,0-.99.32-.99.73v.02c0,.47.28.68,1.46.96,1.29.31,1.95.78,1.95,1.79v.02c0,1.14-.9,1.82-2.18,1.82-.93,0-1.82-.32-2.55-.98h0Z" class="cls-2"></path>
        <path d="M75.26,11.02h-1.94v-.99h4.95v.99h-1.94v5.11h-1.08v-5.11h0Z" class="cls-2"></path>
        <path d="M82.52,13.73l-2.43-3.7h1.27l1.7,2.7,1.73-2.7h1.23l-2.43,3.67v2.43h-1.08v-2.41h0Z" class="cls-2"></path>
        <path d="M88.28,10.03h1.07v5.13h3.21v.98h-4.28v-6.11h0Z" class="cls-2"></path>
        <path d="M94.98,10.03h4.53v.96h-3.46v1.59h3.06v.96h-3.06v1.64h3.5v.96h-4.57v-6.11h0Z" class="cls-2"></path>
      </g>
    </g>
  </g>
  <g>
    <g>
      <path d="M21.08,29.57c-7.04,0-12.77-5.73-12.77-12.77s5.73-12.77,12.77-12.77,12.77,5.73,12.77,12.77-5.73,12.77-12.77,12.77ZM21.08,4.15c-6.98,0-12.65,5.67-12.65,12.65s5.67,12.65,12.65,12.65,12.65-5.67,12.65-12.65-5.67-12.65-12.65-12.65Z" class="cls-2"></path>
      <path d="M21.3,28.79c-6.73,0-12.21-5.48-12.21-12.21s5.48-12.21,12.21-12.21,12.21,5.48,12.21,12.21-5.48,12.21-12.21,12.21h0ZM21.3,4.48c-6.67,0-12.09,5.43-12.09,12.09s5.43,12.09,12.09,12.09,12.09-5.43,12.09-12.09-5.43-12.09-12.09-12.09h0Z" class="cls-2"></path>
      <path d="M20.94,29.03c-6.73,0-12.21-5.48-12.21-12.21s5.48-12.21,12.21-12.21,12.21,5.48,12.21,12.21-5.48,12.21-12.21,12.21h0ZM20.94,4.72c-6.67,0-12.09,5.43-12.09,12.09s5.43,12.09,12.09,12.09,12.09-5.43,12.09-12.09-5.43-12.09-12.09-12.09h0Z" class="cls-2"></path>
    </g>
    <path d="M40.77,11.79c-.12,0-.25.04-.35.13-1.36-1.21-5.35-5.61-14.88,5.58-.51-.92-.87-1.79-1.05-2.63-.11-.44-.16-.89-.17-1.32-.01-.43.06-.9.2-1.39.14-.5.39-.91.73-1.24.53-.54,1.02-.74,1.49-.58.15.05.27.12.36.24s.15.23.19.35.06.27.06.46,0,.34-.03.46c-.02.12-.04.27-.07.46-.04.23.13.35.5.36.37,0,.57-.11.61-.34.24-1.43-.09-2.32-.99-2.65-.95-.35-1.98-.16-3.08.56-1.1.73-1.87,1.74-2.31,3.03-.37,1.07-.43,2.09-.18,3.04-.56,1.63-1.26,3.15-2.1,4.54,0,.04-.03.09-.08.16-1.55,2.63-2.64,3.7-3.29,3.23-.36-.3-.61-.94-.75-1.91-.08-.72-.1-1.54-.05-2.48.04-.76.1-1.53.18-2.32,1.12-1.59,1.97-2.84,2.57-3.74.59-.9,1.3-2.08,2.13-3.54.83-1.46,1.48-2.82,1.97-4.08.45-1.16.72-2.19.83-3.1.12-1.01-.02-1.72-.4-2.13-.45-.49-1.21-.63-2.29-.41-.7.14-1.54.75-2.52,1.84-1.24,1.4-2.2,3.02-2.87,4.85-.67,1.83-1.24,3.94-1.7,6.33-.36,1.88-.57,3.54-.63,4.97-2.94,2.39-7.43,4.95-10.92,2.13.04-.06.06-.13.08-.21.04-.28-.13-.5-.38-.51s-.49.22-.54.49.13.5.38.51c.08,0,.16-.02.24-.06.76.7,4.3,3.28,11.13-1.2,0,.15,0,.3.01.44.12,2.63.92,4.22,2.4,4.79.97.35,1.89.25,2.75-.31.56-.37,1.24-1.14,2.04-2.29.98-1.45,1.77-2.98,2.39-4.59.3.56.72,1.24,1.26,2.02-.75.96-1.29,1.9-1.62,2.8-.53,1.41-.44,2.39.27,2.92.44.28.94.39,1.49.34.55-.06,1.07-.24,1.57-.55.58-.37,1.05-.87,1.42-1.47s.56-1.23.58-1.86c.03-.44-.03-.9-.18-1.37s-.29-.82-.42-1.05c-.13-.23-.35-.6-.66-1.09-.02-.02-.05-.04-.06-.06,2.76-3.35,8.95-11.43,14.29-6.19-.02.04-.03.08-.04.12-.05.28.11.51.36.52.25.01.5-.2.55-.48.05-.28-.11-.51-.36-.52h-.01ZM16.14,14.34c.71-3.95,1.71-7.19,3.01-9.74.39-.76.8-1.45,1.25-2.08.27-.38.52-.66.74-.85.04-.02.09-.06.13-.11.05-.05.08-.09.1-.11.02-.02.05-.04.1-.06s.07-.02.09-.02c.02.01.04.03.08.05.04.02.08.05.13.1.31.34.36,1.09.15,2.25-.15.84-.44,1.77-.87,2.78-.99,2.42-2.7,5.39-5.13,8.92.06-.4.13-.78.2-1.14h0ZM24.74,23.77c-.26.65-.58,1.07-.98,1.26-.27.12-.5.09-.68-.09-.19-.18-.29-.43-.32-.75-.1-.95.36-2.16,1.4-3.63.78,1.22.97,2.29.58,3.21Z" class="cls-2"></path>
  </g>
</svg>