<svg viewBox="0 0 100 30" xmlns:xlink="http://www.w3.org/1999/xlink" xmlns="http://www.w3.org/2000/svg" data-name="Layer 1" id="Layer_1">
  <defs>
    <style>
      .cls-1 {
        fill: #5c2d91;
      }

      .cls-2 {
        fill: url(#linear-gradient);
      }
    </style>
    <linearGradient gradientUnits="userSpaceOnUse" gradientTransform="translate(0 31) scale(1 -1)" y2="29.96" x2="21.71" y1="2.04" x1="21.71" id="linear-gradient">
      <stop stop-color="#dfae26" offset="0"></stop>
      <stop stop-color="#925924" offset=".23"></stop>
      <stop stop-color="#fbe284" offset=".82"></stop>
    </linearGradient>
  </defs>
  <g>
    <path d="M47.85,19.86V1.09h6.27s.17.02.17.02l.34.02.18.03h.14s.19.03.19.03h.14s.18.05.18.05l.15.02.17.05.13.02.18.06.11.02.16.04.15.05.14.06.12.04.15.07.12.06.12.04.14.07.13.09.23.12.13.09.11.07.11.07.13.1.19.17.21.17.12.15.07.05.11.12.17.2.07.1.08.09.08.16.06.08.07.12.11.23.06.11.06.15.05.1.05.15.07.26.05.11.03.16.03.11.04.14v.19s.03.11.03.11l.02.15.03.3v.14s0,.19,0,.19v.13s0,.17,0,.17v.29s-.03.31-.03.31l-.05.29v.13s-.07.28-.07.28l-.02.13-.04.15-.07.15v.09s-.12.28-.12.28l-.05.12-.07.14-.05.1-.07.12-.05.11-.11.14-.03.07-.11.13-.04.08-.11.13-.06.08-.09.11-.31.29-.13.1-.05.06-.14.1-.11.08-.1.08-.12.08-.14.07-.11.07-.15.07-.09.06-.14.07-.12.06-.13.06-.15.05-.13.05-.15.04-.12.05-.17.04-.11.04-.19.03-.29.07-.17.03-.15.03-.17.02-.33.05h-.18s-.17.01-.17.01l-.16.02h-.19s-3.33,0-3.33,0v7.94h-2.94ZM53.73,9.25l.63-.04.19-.02.39-.06.15-.04.19-.04.15-.05.29-.11.12-.06.24-.15.1-.08.1-.08.07-.08.1-.1.09-.1.04-.09.1-.15.14-.36.04-.14.06-.3.02-.16.02-.17v-.72l-.03-.15-.02-.17-.02-.16-.03-.14-.04-.14-.16-.39-.07-.09-.07-.13-.07-.07-.1-.11-.09-.11-.08-.05-.12-.09-.12-.08-.11-.07-.27-.11-.15-.06-.15-.05-.16-.04-.16-.02-.21-.05-.19-.02-.19-.03h-.19s-.22-.02-.22-.02l-.22-.02h-2.93v5.46h2.94Z" class="cls-1"></path>
    <path d="M50.63,9.41h3.1l.22-.02h.22s.2-.02.2-.02l.2-.03.2-.03.19-.03.17-.04.18-.04.17-.06.15-.06.15-.06.13-.06.13-.08.13-.08.11-.08.1-.08.09-.09.1-.1.09-.11.06-.12.09-.12.05-.12.06-.13.05-.13.05-.15.03-.16.03-.16.02-.16.02-.18v-.74l-.03-.17-.02-.16-.03-.16-.03-.15-.05-.15-.05-.14-.06-.13-.05-.13-.09-.13-.06-.11-.09-.1-.1-.11-.09-.1-.1-.08-.11-.09-.12-.08-.12-.08-.14-.06-.15-.06-.15-.06-.17-.06-.17-.05-.18-.03-.19-.05-.21-.02-.19-.03h-.2s-.23-.02-.23-.02l-.21-.02h-.25s-2.85,0-2.85,0v5.8h0ZM48.02,19.69V1.25h6.1s.18.02.18.02h.17s.16.02.16.02l.17.02h.17l.17.03.15.02.16.03.16.02.15.04.15.03.16.05.13.03.16.04.13.05.13.06.14.04.13.06.11.06.14.05.12.06.12.08.12.06.12.06.12.08.1.07.12.08.11.08.09.09.09.08.12.09.1.08.09.12.1.08.09.11.07.09.09.11.06.09.09.1.06.13.07.11.07.11.05.11.05.1.07.12.05.13.05.11.05.13.03.12.04.13.05.13.02.13.03.13.04.15v.14l.03.14.02.14v.14s.03.15.03.15v.14s0,.16,0,.16v.15s0,.15,0,.15v.3s-.02.15-.02.15v.14s-.03.13-.03.13l-.03.15v.15s-.04.12-.04.12l-.03.13-.02.14-.04.13-.06.12-.02.13-.05.12-.05.13-.05.11-.07.13-.05.11-.06.11-.05.12-.09.1-.06.1-.09.11-.06.1-.09.1-.07.1-.09.1-.1.1-.09.09-.1.09-.12.09-.08.09-.1.06-.12.09-.1.08-.11.07-.12.06-.12.08-.13.06-.11.07-.13.06-.13.07-.13.06-.13.05-.14.05-.13.04-.13.05-.16.04-.13.05-.16.02-.16.04-.14.04-.16.03-.16.03-.15.02-.17.02-.17.02h-.16s-.16.01-.16.01l-.17.02h-.18s-.16.01-.16.01h-3.33v7.94h-2.62Z" class="cls-1"></path>
    <path d="M62.49,19.86V1.09h2.52l11.9,14.03V1.09h2.96v18.77s-2.6,0-2.6,0l-11.86-14.04v14.05h-2.92Z" class="cls-1"></path>
    <path d="M62.66,19.69V1.25h2.28l12.14,14.31V1.25h2.63v18.44h-2.37l-12.09-14.32v14.33h-2.59Z" class="cls-1"></path>
    <path d="M92.59,20.19h-.21s-.62-.05-.62-.05l-.2-.02-.21-.02-.2-.03-.19-.02-.39-.06-.19-.03-.18-.04-.21-.06-.18-.03-.18-.04-.2-.07-.34-.1-.2-.09-.16-.05-.18-.07-.18-.08-.19-.07-.16-.07-.17-.09-.15-.06-.19-.12-.31-.16-.32-.21-.26-.19-.25-.17-.24-.18-.23-.2-.22-.18-.23-.21-.22-.21-.41-.43-.19-.24-.19-.22-.18-.23-.17-.26-.16-.25-.15-.25-.29-.55-.36-.8-.1-.29-.26-.86-.08-.28-.05-.32-.06-.28-.03-.31-.04-.28-.03-.31v-.32s-.02-.31-.02-.31v-.24s.03-.46.03-.46l.02-.25.04-.23.03-.22.05-.25.06-.22.03-.21.07-.25.07-.22.05-.21.24-.68.1-.23.09-.21.21-.44.1-.2.26-.41.11-.2.28-.39.14-.18.16-.2.14-.17.17-.19.33-.34.18-.17.17-.17.18-.17.21-.16.18-.15.21-.17.18-.14.42-.27.22-.14.42-.25.23-.1.22-.12.21-.11.24-.09.24-.08.23-.09.25-.08.24-.07.5-.13.49-.1.54-.08.24-.04.27-.03.28-.02h.28s.27-.03.27-.03h.28s.49-.01.49-.01h.21s.18.02.18.02l.2.02h.17s.19.02.19.02l.41.05.2.03h.19s.21.06.21.06l.19.03h.18s.22.07.22.07l.19.04.2.05.79.21.39.12.39.13.41.16.4.15.91.39v3.26l-.45-.28-.21-.09-.23-.11-.2-.11-.84-.37-.2-.1-.4-.14-.19-.08-.19-.07-.39-.11-.2-.07-.18-.05-.37-.08-.2-.05-.18-.03-.2-.05-.17-.02-.19-.04-.18-.03-.37-.05h-.17s-.2-.02-.2-.02h-.36s-.38-.01-.38-.01h-.19s-.2.01-.2.01l-.17.02-.18.03-.2.02-.19.02-.17.03-.17.04-.2.03-.16.04-.19.04-.51.15-.13.06-.19.07-.16.07-.16.07-.16.08-.3.16-.14.09-.14.09-.18.1-.11.09-.15.1-.16.11-.1.1-.17.12-.11.1-.11.12-.15.14-.24.24-.33.4-.11.13-.08.13-.12.15-.06.11-.11.17-.09.14-.06.13-.09.16-.05.13-.08.17-.18.47-.04.16-.06.17-.03.15-.07.33-.03.18-.04.18-.02.17-.03.18v.16s-.01.18-.01.18v.21s-.01.17-.01.17v.19s.01.17.01.17v.36s.04.16.04.16l.02.17.04.17.06.36.04.15.03.18.05.14.15.49.07.14.06.17.07.14.08.14.07.17.07.11.09.15.09.17.08.12.1.13.1.12.11.16.22.25.24.26.13.12.13.13.13.1.26.24.13.09.29.21.15.09.14.1.29.16.15.08.16.07.16.08.15.06.17.08.48.16.16.04.16.03.18.05.18.04.18.04.16.04.18.02h.18s.39.05.39.05h.17s.63.01.63.01l.46-.03.21-.04.26-.02.24-.03.22-.04.25-.03.22-.07.23-.06.49-.15.25-.08.24-.09.39-.16v-3.29h-3.13s-.01-2.78-.01-2.78h6.18v8.06s-.99.42-.99.42l-.88.32-.44.13-.42.14-.21.06-.2.07-.24.05-.37.1-.43.07-.18.05-.22.03-.17.04h-.23s-.19.04-.19.04l-.2.02-.16.03-.78.05h-.19s-.4.01-.4.01Z" class="cls-1"></path>
    <path d="M99.34,10.65v7.79s-.45.19-.45.19l-.45.19-.45.16-.43.16-.43.13-.43.14-.2.06-.22.07-.22.04-.19.05-.19.06-.22.04-.2.03-.19.06-.2.03-.19.05h-.2s-.21.04-.21.04l-.19.02-.18.03h-.2s-.19.02-.19.02h-.19s-.18.02-.18.02h-.19s-.18.01-.18.01h-.41s-.22-.03-.22-.03h-.2s-.2-.02-.2-.02l-.19-.02-.21-.02-.19-.03-.19-.02-.19-.03-.19-.03-.19-.03-.17-.04-.2-.06-.19-.04-.17-.04-.18-.06-.18-.05-.18-.05-.18-.08-.18-.05-.17-.07-.17-.08-.19-.08-.16-.07-.16-.09-.16-.07-.17-.1-.16-.08-.16-.08-.16-.11-.15-.09-.25-.19-.26-.17-.23-.18-.23-.2-.23-.18-.22-.2-.21-.21-.2-.21-.21-.22-.18-.23-.19-.22-.17-.23-.16-.26-.17-.25-.15-.24-.15-.27-.14-.26-.12-.26-.12-.27-.12-.26-.1-.28-.09-.29-.08-.28-.08-.29-.08-.28-.05-.3-.06-.29-.03-.29-.04-.29-.03-.31v-.31s-.02-.3-.02-.3v-.23s.02-.24.02-.24v-.22s.03-.24.03-.24l.04-.21.03-.23.04-.24.05-.21.03-.23.07-.22.07-.22.06-.22.08-.22.08-.23.08-.22.1-.21.09-.22.11-.22.11-.22.1-.2.12-.2.12-.2.12-.21.14-.19.13-.19.13-.18.15-.2.14-.17.16-.18.16-.17.16-.16.18-.16.18-.18.18-.17.2-.15.19-.16.21-.16.18-.13.21-.14.2-.13.22-.13.2-.12.21-.13.22-.1.23-.12.21-.1.23-.09.23-.08.23-.09.24-.08.23-.07.23-.06.25-.07.25-.05.24-.05.26-.04.27-.04.25-.05.26-.03.27-.02h.27s.29-.03.29-.03l.27-.02h.48l.19.02h.19s.19.03.19.03h.18s.19.02.19.02l.22.03.18.02.2.03h.2s.18.06.18.06l.2.04.19.02.19.04.2.04.19.05.39.11.4.11.39.12.39.13.4.16.4.15.41.17.4.17v2.86l-.2-.13-.23-.1-.22-.11-.2-.11-.22-.1-.21-.09-.2-.09-.21-.1-.2-.09-.21-.08-.21-.07-.18-.08-.19-.08-.19-.05-.22-.06-.19-.07-.19-.06-.19-.05-.19-.04-.2-.05-.19-.03-.19-.04-.19-.02-.17-.03-.19-.04-.21-.03-.18-.02h-.18s-.19-.02-.19-.02h-.37s-.2,0-.2,0h-.39s-.2,0-.2,0l-.19.02-.19.02-.19.02-.19.02-.18.03-.18.04-.19.03-.17.04-.18.04-.17.05-.16.05-.19.06-.15.07-.17.06-.17.07-.16.08-.16.08-.14.07-.16.09-.15.09-.14.1-.17.09-.14.11-.14.1-.15.1-.12.12-.15.11-.12.11-.13.13-.14.13-.12.12-.13.13-.11.13-.11.14-.12.14-.11.13-.1.15-.11.14-.07.14-.1.15-.09.15-.06.14-.09.15-.06.16-.08.15-.06.16-.06.16-.06.16-.04.18-.06.15-.04.17-.03.17-.03.17-.03.18-.03.17-.02.18-.03.18v.18s-.01.19-.01.19v.2s-.01.18-.01.18v.18s.01.19.01.19v.36s.04.17.04.17l.02.17.03.18.03.16.03.19.03.16.04.18.06.16.05.16.05.16.05.16.08.16.06.15.07.16.09.15.06.16.08.13.1.15.09.17.09.13.1.13.11.13.1.15.11.13.12.13.12.13.13.13.13.12.12.13.15.11.12.11.13.12.15.1.14.1.14.1.15.1.14.09.16.09.15.08.15.08.16.08.15.08.17.06.16.07.16.05.18.06.16.05.18.05.17.03.17.05.19.04.18.04.16.04.19.02h.19s.19.03.19.03l.19.02h.18s.22.01.22.01h.64s.25-.02.25-.02l.23-.04.24-.02.24-.03.23-.04.24-.03.24-.07.22-.06.25-.07.25-.07.25-.08.25-.09.25-.1.24-.1v-3.57h-3.13s-.01-2.45-.01-2.45h5.85Z" class="cls-1"></path>
    <path d="M50.21,28.81c-.29.27-.65.39-1.09.39-.24,0-.44-.03-.61-.1-.18-.07-.34-.19-.49-.35l.46-.45c.09.09.19.17.28.21.08.05.22.06.36.06.26,0,.46-.07.62-.24.13-.15.2-.37.2-.68v-3.06h.69v3.12c0,.46-.13.82-.43,1.09Z" class="cls-1"></path>
    <path d="M54.35,29.16v-4.56h2.92v.62h-2.22s0,1.34,0,1.34h1.89v.62h-1.89s0,1.35,0,1.35h2.22v.63h-2.92Z" class="cls-1"></path>
    <path d="M64.28,29.16h-.6s-.92-3.2-.92-3.2l-.93,3.2h-.6l-1.2-4.56h.74l.79,3.26.91-3.26h.57s.92,3.26.92,3.26l.79-3.26h.73s-1.19,4.56-1.19,4.56Z" class="cls-1"></path>
    <path d="M68.11,29.16v-4.56h2.92v.63h-2.22v1.33h1.89v.62h-1.89s0,1.36,0,1.36h2.22v.63h-2.92Z" class="cls-1"></path>
    <path d="M73.94,29.16v-4.56s.7,0,.7,0v3.94h2.2v.63h-2.89Z" class="cls-1"></path>
    <path d="M79.8,29.16v-4.56h.69v3.94h2.2s0,.62,0,.62h-2.89Z" class="cls-1"></path>
    <path d="M85.39,29.16v-4.56h2.91v.63h-2.22v1.33s1.89,0,1.89,0v.61h-1.89v1.36h2.22v.63h-2.91Z" class="cls-1"></path>
    <path d="M93.32,29.16l-.96-1.92h-.87s0,1.93,0,1.93h-.69v-4.56h1.76c.43,0,.77.12,1.02.37.26.25.39.57.39.96,0,.32-.08.57-.25.79-.17.21-.38.36-.65.42l1.04,2.02h-.8ZM93.09,25.41c-.15-.13-.34-.19-.57-.19h-1.02v1.43s1.02-.02,1.02-.02c.24,0,.43-.05.57-.17.14-.12.2-.3.2-.53,0-.22-.07-.39-.2-.52Z" class="cls-1"></path>
    <path d="M98.89,28.84c-.31.24-.69.36-1.18.36-.36,0-.66-.05-.91-.14-.26-.1-.5-.25-.72-.46l.46-.46c.17.16.34.27.52.33.18.07.41.09.66.11.3,0,.52-.06.7-.18.17-.12.24-.29.24-.51,0-.21-.06-.37-.18-.47-.06-.05-.13-.1-.19-.12-.07-.03-.18-.05-.32-.07l-.27-.03-.26-.04c-.38-.05-.67-.17-.86-.37-.23-.21-.33-.51-.33-.88,0-.4.13-.72.4-.96.27-.24.65-.37,1.12-.37.3,0,.57.04.79.12.22.08.43.21.63.4l-.44.44c-.14-.13-.27-.22-.44-.28-.16-.04-.35-.07-.55-.08-.26.01-.47.07-.61.21-.15.13-.21.3-.21.52,0,.17.05.32.16.42.13.11.29.18.52.21l.26.05.25.04c.21.02.38.07.5.12.14.05.25.12.34.21.25.2.37.52.37.93s-.15.74-.45.98Z" class="cls-1"></path>
  </g>
  <path d="M28.94,1.04c-2.65,0-5.12.75-7.23,2.02-2.11-1.28-4.58-2.02-7.23-2.02C6.76,1.04.5,7.29.5,15s6.26,13.96,13.99,13.96c2.65,0,5.12-.75,7.23-2.03,2.11,1.28,4.58,2.03,7.23,2.03,7.72,0,13.98-6.25,13.98-13.96S36.66,1.04,28.94,1.04ZM14.48,27.36c-6.84,0-12.39-5.54-12.39-12.36S7.64,2.63,14.48,2.63c2.09,0,4.05.52,5.78,1.43-3.23,2.56-5.31,6.5-5.31,10.93s2.08,8.38,5.31,10.93c-1.73.91-3.69,1.43-5.78,1.43ZM21.71,4.97c3.12,2.25,5.16,5.9,5.16,10.03s-2.04,7.78-5.16,10.03c-3.12-2.24-5.16-5.9-5.16-10.03,0-4.13,2.04-7.78,5.16-10.03ZM28.94,27.36c-2.09,0-4.05-.52-5.78-1.43,3.23-2.56,5.31-6.5,5.31-10.93s-2.08-8.38-5.31-10.93c1.73-.91,3.69-1.43,5.78-1.43,6.84,0,12.39,5.54,12.39,12.37s-5.55,12.36-12.39,12.36Z" class="cls-2"></path>
</svg>