<svg viewBox="0 0 80 80" xmlns:xlink="http://www.w3.org/1999/xlink" xmlns="http://www.w3.org/2000/svg" data-name="Layer 1" id="Layer_1">
  <defs>
    <style>
      .cls-1 {
        fill: #5c2d91;
      }

      .cls-2 {
        fill: url(#linear-gradient);
      }
    </style>
    <linearGradient gradientUnits="userSpaceOnUse" gradientTransform="translate(0 82) scale(1 -1)" y2="81.56" x2="40" y1="38.5" x1="40" id="linear-gradient">
      <stop stop-color="#dfae26" offset="0"></stop>
      <stop stop-color="#925924" offset=".23"></stop>
      <stop stop-color="#fbe284" offset=".82"></stop>
    </linearGradient>
  </defs>
  <path d="M16.26,79c-.3.27-.66.4-1.11.4-.24,0-.45-.04-.62-.1-.18-.07-.34-.19-.5-.35l.47-.46c.09.09.19.17.28.22.08.05.22.07.37.07.27,0,.47-.08.63-.24.14-.16.21-.38.21-.69v-3.11h.7v3.18c0,.46-.14.83-.43,1.11Z" class="cls-1"></path>
  <g>
    <path d="M13.65,70.06v-19.09h6.38s.18.02.18.02l.35.02.19.03h.14s.2.03.2.03h.14s.18.05.18.05l.15.02.18.05.13.02.18.06.12.02.16.04.15.05.15.06.12.04.15.07.13.06.12.05.14.07.14.09.24.12.13.09.11.08.11.07.13.1.19.18.21.17.12.15.07.05.11.13.17.21.07.1.08.09.08.17.06.08.07.12.12.23.06.11.06.15.05.1.06.15.08.27.05.12.03.17.03.12.04.14v.19s.03.12.03.12l.02.15.03.3v.15s0,.19,0,.19v.13s0,.17,0,.17v.3s-.03.32-.03.32l-.05.3v.13s-.08.29-.08.29l-.02.13-.04.15-.07.15v.09s-.12.29-.12.29l-.05.12-.07.14-.05.1-.07.12-.05.11-.12.14-.03.07-.11.13-.04.08-.12.13-.06.09-.09.12-.31.3-.14.1-.05.07-.15.1-.11.08-.1.08-.12.08-.14.07-.11.07-.15.07-.09.06-.14.07-.13.06-.14.06-.15.05-.13.06-.16.04-.12.05-.17.04-.12.04-.19.03-.29.07-.17.03-.16.03-.17.02-.33.05h-.18s-.17.01-.17.01l-.16.02h-.19s-3.39,0-3.39,0v8.08h-2.99ZM19.63,59.27l.64-.04.19-.03.39-.07.16-.04.19-.04.16-.05.29-.11.12-.06.25-.15.1-.08.1-.08.07-.08.11-.1.09-.1.04-.09.1-.15.15-.36.04-.14.06-.31.02-.16.02-.17v-.73l-.03-.15-.02-.17-.02-.16-.03-.14-.05-.14-.16-.4-.07-.09-.07-.13-.07-.07-.1-.11-.1-.11-.08-.05-.12-.09-.12-.08-.11-.07-.28-.12-.15-.07-.16-.05-.16-.05-.16-.02-.21-.06-.19-.02-.2-.03h-.2s-.23-.02-.23-.02l-.22-.02h-2.98v5.56h2.99Z" class="cls-1"></path>
    <path d="M16.48,59.43h3.16l.23-.02h.22s.21-.02.21-.02l.2-.03.2-.03.19-.03.17-.04.18-.04.18-.06.15-.06.15-.06.13-.06.13-.08.13-.08.12-.09.1-.09.09-.09.1-.1.1-.12.06-.13.09-.12.06-.12.06-.14.05-.13.05-.15.03-.17.03-.16.03-.16.02-.18v-.75l-.03-.18-.02-.16-.03-.17-.03-.15-.05-.15-.05-.14-.06-.14-.06-.14-.09-.13-.06-.11-.1-.1-.1-.11-.09-.1-.1-.08-.12-.09-.12-.09-.12-.08-.15-.06-.15-.06-.15-.06-.17-.06-.17-.05-.18-.03-.19-.05-.22-.02-.19-.03h-.21s-.23-.02-.23-.02l-.22-.02h-.25s-2.9,0-2.9,0v5.9h0ZM13.82,69.89v-18.76h6.2s.19.02.19.02h.18s.16.02.16.02l.17.03h.17l.17.03.15.02.16.03.16.02.15.04.15.03.16.05.13.03.16.04.13.05.14.06.14.04.14.06.12.06.14.05.12.06.13.08.12.06.12.06.12.08.1.07.12.08.12.08.09.09.09.08.12.1.1.08.09.12.1.08.09.11.07.09.09.11.06.09.09.1.06.13.08.11.07.11.06.12.06.1.07.12.05.13.05.11.05.14.03.12.04.14.05.13.02.14.03.13.04.15v.14l.03.14.02.15v.14s.03.15.03.15v.15s0,.17,0,.17v.15s0,.16,0,.16v.3s-.02.16-.02.16v.15s-.03.13-.03.13l-.03.16v.15s-.04.12-.04.12l-.03.13-.02.14-.04.13-.06.13-.02.13-.05.12-.05.13-.05.11-.07.14-.05.11-.06.11-.06.12-.09.1-.06.11-.09.11-.06.1-.09.1-.07.11-.09.1-.1.1-.09.09-.1.1-.12.09-.08.09-.1.06-.13.09-.1.08-.11.07-.12.07-.12.08-.13.06-.11.07-.13.06-.13.07-.13.06-.14.05-.14.06-.14.04-.13.05-.16.04-.13.05-.16.02-.16.04-.14.04-.16.03-.16.03-.15.02-.17.02-.17.03h-.17s-.16.01-.16.01l-.18.02h-.19s-.16.01-.16.01h-3.38v8.08h-2.66Z" class="cls-1"></path>
    <path d="M28.55,70.06v-19.09h2.56l12.11,14.27v-14.27h3.01v19.09s-2.65,0-2.65,0l-12.06-14.28v14.29h-2.97Z" class="cls-1"></path>
    <path d="M28.71,69.89v-18.76h2.32l12.35,14.56v-14.56h2.68v18.76h-2.41l-12.3-14.57v14.58h-2.64Z" class="cls-1"></path>
    <path d="M59.16,70.4h-.21s-.63-.05-.63-.05l-.2-.02-.21-.02-.21-.03-.19-.02-.4-.06-.19-.03-.18-.04-.21-.06-.18-.03-.18-.04-.2-.07-.35-.1-.21-.09-.16-.05-.18-.07-.18-.08-.19-.07-.17-.07-.18-.09-.15-.07-.19-.12-.31-.16-.33-.21-.27-.2-.25-.17-.25-.19-.24-.2-.23-.18-.23-.22-.22-.22-.42-.44-.19-.25-.19-.22-.18-.24-.17-.27-.17-.25-.16-.25-.3-.56-.37-.81-.11-.3-.26-.88-.08-.29-.05-.32-.06-.29-.03-.31-.04-.29-.03-.32v-.32s-.02-.32-.02-.32v-.24s.03-.47.03-.47l.02-.25.04-.23.03-.23.05-.25.06-.22.03-.22.07-.25.07-.23.05-.22.25-.69.11-.23.09-.22.22-.45.1-.21.26-.42.12-.2.29-.4.14-.19.16-.2.14-.18.17-.19.33-.34.19-.18.18-.18.19-.18.21-.17.18-.16.22-.17.18-.14.43-.28.22-.14.43-.25.23-.11.22-.12.22-.11.24-.1.24-.08.23-.09.25-.08.24-.07.5-.13.5-.11.55-.08.25-.05.28-.04.28-.02h.28s.28-.03.28-.03h.28s.5-.01.5-.01h.21s.19.02.19.02l.2.02h.18s.2.02.2.02l.41.05.21.03h.19s.21.06.21.06l.19.04h.18s.22.07.22.07l.19.04.2.05.8.21.4.12.4.13.42.17.4.15.92.4v3.32l-.46-.28-.21-.09-.23-.11-.2-.11-.86-.38-.2-.1-.41-.15-.2-.09-.19-.07-.4-.12-.2-.08-.18-.05-.38-.08-.2-.06-.18-.03-.2-.05-.18-.02-.19-.04-.19-.03-.38-.05h-.17s-.2-.02-.2-.02h-.36s-.39-.01-.39-.01h-.19s-.2.01-.2.01l-.18.02-.19.03-.2.02-.19.02-.17.03-.17.04-.2.03-.16.04-.19.04-.52.15-.13.06-.19.07-.16.07-.16.07-.16.08-.3.16-.15.09-.14.09-.18.1-.11.09-.15.1-.16.11-.1.1-.17.13-.12.1-.11.12-.15.14-.24.25-.34.41-.11.14-.08.13-.12.15-.06.12-.11.17-.09.15-.06.13-.09.17-.05.13-.08.17-.18.47-.04.16-.07.18-.03.15-.07.34-.03.18-.04.18-.02.17-.03.19v.17s-.01.18-.01.18v.21s-.01.17-.01.17v.2s.01.17.01.17v.37s.04.16.04.16l.02.18.04.18.06.36.04.15.03.18.05.14.16.49.07.14.06.17.07.14.08.14.08.18.07.11.09.15.1.17.08.12.1.13.1.12.11.17.22.25.24.26.13.12.13.14.13.1.26.25.13.09.29.21.15.1.14.1.3.17.15.08.16.07.16.08.15.06.17.08.49.16.17.04.16.03.19.06.18.04.18.04.17.04.18.02h.18s.4.05.4.05h.17s.64.01.64.01l.47-.03.21-.04.26-.03.25-.03.22-.04.25-.03.22-.07.23-.06.5-.15.25-.08.25-.09.39-.16v-3.35h-3.18s-.01-2.82-.01-2.82h6.29v8.2s-1.01.43-1.01.43l-.9.33-.44.13-.43.14-.22.06-.21.07-.24.05-.38.11-.44.07-.18.05-.23.03-.18.04h-.23s-.2.04-.2.04l-.2.02-.17.03-.79.05h-.2s-.41.01-.41.01Z" class="cls-1"></path>
    <path d="M66.03,60.7v7.92s-.45.19-.45.19l-.46.19-.45.16-.43.16-.43.13-.43.14-.21.06-.22.07-.22.04-.19.05-.2.06-.22.04-.2.03-.19.06-.21.03-.19.05h-.2s-.21.04-.21.04l-.19.02-.18.03h-.21s-.19.02-.19.02h-.19s-.18.02-.18.02h-.2s-.19.01-.19.01h-.41s-.22-.03-.22-.03h-.21s-.21-.02-.21-.02l-.19-.02-.21-.02-.2-.03-.2-.02-.2-.03-.19-.03-.19-.03-.18-.04-.2-.06-.19-.04-.17-.04-.19-.06-.18-.05-.18-.05-.18-.08-.18-.06-.17-.07-.17-.08-.2-.08-.16-.07-.16-.09-.16-.07-.18-.11-.16-.08-.16-.08-.16-.11-.15-.1-.25-.19-.26-.17-.23-.18-.23-.2-.23-.18-.22-.21-.22-.21-.2-.21-.21-.22-.18-.23-.2-.23-.17-.23-.17-.26-.17-.25-.15-.24-.15-.28-.14-.27-.12-.26-.13-.28-.12-.26-.1-.28-.09-.29-.08-.29-.08-.29-.08-.28-.05-.3-.06-.29-.03-.3-.04-.3-.03-.32v-.32s-.02-.31-.02-.31v-.24s.02-.25.02-.25v-.22s.03-.25.03-.25l.04-.21.03-.24.05-.24.05-.21.03-.24.07-.23.07-.22.06-.22.08-.22.08-.24.08-.22.1-.21.1-.22.11-.22.11-.22.1-.2.13-.2.13-.2.12-.21.14-.19.14-.19.14-.19.15-.2.14-.17.17-.18.17-.17.16-.17.18-.17.18-.18.18-.17.2-.16.19-.16.21-.17.18-.13.22-.14.2-.13.22-.14.21-.12.22-.13.22-.1.23-.12.21-.11.23-.09.24-.08.24-.1.24-.08.24-.07.24-.06.26-.07.25-.05.25-.05.26-.04.27-.04.25-.05.27-.03.28-.02h.27s.29-.03.29-.03l.27-.02h.49l.2.02h.19s.19.03.19.03h.19s.2.02.2.02l.22.03.18.02.21.03h.2s.18.06.18.06l.21.04.2.02.2.05.2.04.19.05.39.11.41.11.39.12.4.13.41.16.41.15.41.18.4.18v2.91l-.21-.13-.23-.11-.23-.11-.2-.11-.23-.1-.22-.09-.2-.09-.22-.1-.2-.1-.21-.08-.21-.07-.19-.08-.2-.08-.19-.05-.22-.07-.19-.07-.19-.06-.2-.05-.19-.04-.2-.06-.19-.03-.19-.05-.19-.02-.18-.03-.19-.04-.21-.03-.18-.02h-.19s-.19-.03-.19-.03h-.37s-.2,0-.2,0h-.4s-.2,0-.2,0l-.19.02-.19.03-.19.02-.2.02-.18.03-.18.04-.2.03-.17.04-.19.04-.17.05-.16.05-.2.06-.15.07-.18.06-.17.07-.17.08-.16.08-.14.07-.17.09-.16.1-.14.1-.17.09-.14.11-.14.1-.16.11-.13.12-.16.11-.12.11-.13.14-.14.13-.12.12-.13.13-.11.13-.12.14-.12.14-.11.13-.1.15-.11.14-.08.14-.1.16-.09.15-.07.15-.09.16-.06.16-.08.16-.06.17-.06.16-.06.16-.04.19-.06.15-.04.17-.03.18-.03.17-.03.19-.03.17-.02.19-.03.18v.18s-.01.19-.01.19v.2s-.01.18-.01.18v.19s.01.19.01.19v.37s.04.18.04.18l.02.17.03.19.03.17.03.19.03.16.04.18.06.16.05.17.05.16.05.16.08.16.06.15.07.16.09.15.07.16.08.13.1.15.09.17.09.13.1.13.12.13.1.15.11.13.12.14.12.13.13.13.14.13.13.13.15.12.12.11.13.12.15.1.14.11.15.1.16.1.14.09.16.09.15.08.15.08.16.08.15.08.17.06.17.07.16.06.18.06.16.05.18.05.17.03.17.05.2.05.19.04.16.04.19.02h.19s.2.03.2.03l.19.02h.18s.22.01.22.01h.65s.25-.02.25-.02l.23-.04.25-.02.25-.03.24-.04.25-.03.25-.07.23-.06.25-.07.25-.07.25-.08.25-.09.25-.1.25-.1v-3.63h-3.18s-.01-2.49-.01-2.49h5.95Z" class="cls-1"></path>
    <path d="M20.26,79.52v-4.64h2.97v.63h-2.26s0,1.36,0,1.36h1.92v.63h-1.92s0,1.38,0,1.38h2.25v.64h-2.97Z" class="cls-1"></path>
    <path d="M30.37,79.52h-.62s-.93-3.25-.93-3.25l-.95,3.25h-.61l-1.22-4.64h.75l.8,3.31.93-3.32h.58s.93,3.32.93,3.32l.8-3.32h.74s-1.21,4.64-1.21,4.64Z" class="cls-1"></path>
    <path d="M34.26,79.52v-4.64h2.97v.64h-2.26v1.35h1.92v.63h-1.92s0,1.39,0,1.39h2.26v.64h-2.97Z" class="cls-1"></path>
    <path d="M40.19,79.52v-4.64s.71,0,.71,0v4.01h2.23v.64h-2.94Z" class="cls-1"></path>
    <path d="M46.15,79.52v-4.64h.71v4.01h2.23s0,.63,0,.63h-2.94Z" class="cls-1"></path>
    <path d="M51.84,79.52v-4.64h2.96v.64h-2.26v1.35s1.93,0,1.93,0v.62h-1.93v1.39h2.26v.64h-2.96Z" class="cls-1"></path>
    <path d="M59.91,79.52l-.98-1.96h-.88s0,1.96,0,1.96h-.7v-4.64h1.79c.44,0,.78.12,1.04.38.26.25.4.58.4.98,0,.32-.08.58-.25.8-.18.22-.39.36-.67.42l1.06,2.06h-.81ZM59.67,75.71c-.15-.13-.34-.19-.58-.19h-1.04v1.46s1.04-.02,1.04-.02c.24,0,.43-.05.58-.18.15-.13.21-.31.21-.54,0-.22-.07-.4-.21-.53Z" class="cls-1"></path>
    <path d="M65.57,79.2c-.31.24-.71.37-1.2.37-.36,0-.67-.05-.92-.14-.27-.1-.51-.26-.73-.47l.47-.46c.17.16.34.28.52.34.19.07.42.1.67.11.31,0,.53-.06.71-.19.17-.12.24-.3.24-.52,0-.22-.06-.38-.18-.48-.06-.06-.13-.1-.19-.12-.07-.03-.18-.05-.32-.07l-.27-.03-.27-.04c-.39-.05-.68-.18-.88-.37-.23-.22-.34-.52-.34-.89,0-.4.13-.73.41-.98.28-.25.66-.38,1.14-.38.31,0,.58.04.8.12.22.08.44.22.64.41l-.45.44c-.14-.13-.28-.22-.45-.29-.16-.04-.35-.07-.56-.08-.27.01-.47.07-.63.21-.15.13-.22.3-.22.52,0,.17.05.32.17.42.13.11.3.18.53.21l.27.05.25.04c.21.02.38.07.51.13.14.05.26.12.35.22.25.21.38.53.38.94s-.15.76-.46,1Z" class="cls-1"></path>
    <path d="M51.15.44c-4.09,0-7.89,1.15-11.15,3.12-3.26-1.97-7.06-3.12-11.15-3.12C16.93.44,7.27,10.07,7.27,21.97s9.66,21.53,21.58,21.53c4.09,0,7.89-1.16,11.15-3.13,3.26,1.97,7.07,3.13,11.15,3.13,11.92,0,21.58-9.64,21.58-21.53S63.07.44,51.15.44ZM28.85,41.04c-10.56,0-19.12-8.54-19.12-19.07S18.29,2.89,28.85,2.89c3.22,0,6.25.81,8.92,2.21-4.98,3.94-8.19,10.03-8.19,16.87s3.21,12.92,8.19,16.87c-2.66,1.4-5.69,2.21-8.92,2.21ZM40,6.49c4.82,3.47,7.97,9.1,7.97,15.47s-3.15,12.01-7.97,15.47c-4.82-3.46-7.96-9.1-7.96-15.47,0-6.38,3.15-12.01,7.96-15.47ZM51.15,41.04c-3.22,0-6.25-.8-8.92-2.21,4.98-3.94,8.19-10.03,8.19-16.87s-3.21-12.93-8.19-16.87c2.66-1.4,5.69-2.21,8.92-2.21,10.56,0,19.11,8.54,19.11,19.08s-8.56,19.07-19.11,19.07Z" class="cls-2"></path>
  </g>
</svg>